<svg xmlns="http://www.w3.org/2000/svg" width="301.094" height="57.011" viewBox="0 0 301.094 57.011">
  <defs>
    <clipPath id="a">
      <path style="fill:none" d="M0 0h301.094v57.011H0z"/>
    </clipPath>
    <style>
      .e{fill:#ffc72c}
    </style>
  </defs>
  <g style="clip-path:url(#a)">
    <path d="M33.048 40.8V20.19c0-1.5 0-3.125.06-4.326h-.06c-.361.841-2.043 3.245-2.7 4.266l-6.61 9.914h-4.086l-7.571-10.275a37 37 0 0 1-2.7-3.906h-.12c.06 1.322.06 2.944.06 4.026v20.91H0V.421h8.472l10.095 14.121c1.2 1.743 2.223 3.185 3.125 4.807h.12a56 56 0 0 1 2.944-5.107L33.829.422h8.532V40.86h-9.314Zm29.382.66c-9.794 0-14.781-6.73-14.781-15.082 0-9.374 7.571-15.2 15.5-15.2 4.807 0 7.331 1.142 8.833 2.163l-.18 7.21a10.2 10.2 0 0 0-7.09-2.524 7.8 7.8 0 0 0-7.871 7.932c0 3.966 2.163 8.232 7.811 8.232a12.66 12.66 0 0 0 6.61-1.983l2.163 5.889A20.4 20.4 0 0 1 62.43 41.46m34.551 0c-13.52 0-20.97-9.133-20.97-20.43 0-11.6 8.833-21.031 23.134-21.031a24.35 24.35 0 0 1 10.635 2.1l-.18 8.112a19.37 19.37 0 0 0-9.975-2.7c-9.614 0-13.339 6.429-13.339 12.859 0 7.21 4.807 13.039 12.378 13.039a20 20 0 0 0 10.155-2.764l2.524 6.429a26.1 26.1 0 0 1-14.362 4.386m36.713-.661-1.262-2.464a11.72 11.72 0 0 1-8.112 3.064c-5.708 0-9.854-3.725-9.854-9.554 0-6.249 5.228-9.314 12.5-9.614l4.687-.18v-.24c0-2.584-2.464-3.786-5.107-3.786a15.7 15.7 0 0 0-7.451 1.8l-2.7-5.468a21 21 0 0 1 12.071-3.181c8.292 0 12.558 3.3 12.558 11.056v13.219a21 21 0 0 0 .481 5.408h-7.811Zm-2.163-12.923-3.125.12c-3.125.12-4.747 1.142-4.747 3.125 0 2.043 1.562 3.185 4.086 3.185a7.2 7.2 0 0 0 3.725-.841v-5.589Zm35.151 12.923V24.276c0-2.524-.541-5.348-3.785-5.348a11.1 11.1 0 0 0-6.249 2.043v19.888h-9.254V11.837h7.932l.9 2.944a16.07 16.07 0 0 1 10.096-3.605c4.567 0 9.614 2.464 9.614 10.575v19.108h-9.253Zm34.37 0V24.276c0-2.524-.541-5.348-3.785-5.348a11.1 11.1 0 0 0-6.249 2.043v19.888h-9.254V11.837h7.932l.9 2.944a16.07 16.07 0 0 1 10.096-3.605c4.567 0 9.614 2.464 9.614 10.575v19.108h-9.253Z" transform="translate(90.789 10.804)" style="fill:#fff"/>
    <path d="M128.312.194s-130.089-2.1-99.5 56.9h44.279c.06.006-75.95-50.11 55.221-56.9" transform="translate(-9.642 -.085)" style="fill:#da291c"/>
    <path class="e" d="M1.794 57.012h17.43C-11.42-1.994 118.669.109 118.669.109S-17.069-5.119 1.794 57.012"/>
    <path class="e" d="M63.509 57.008s-76.011-50.11 55.22-56.9c0 0-124.441 4.146-37.314 56.9Z"/>
  </g>
</svg>
